<svg xmlns="http://www.w3.org/2000/svg" viewBox="0 0 1200 675" role="img">
<defs>
<linearGradient id="bg" x1="0" y1="0" x2="1" y2="1"><stop offset="0" stop-color="#0c3a30"/><stop offset="1" stop-color="#14513f"/></linearGradient>
<radialGradient id="glow" cx="0.5" cy="0.5" r="0.5"><stop offset="0" stop-color="#1b6a52" stop-opacity="0.9"/><stop offset="1" stop-color="#1b6a52" stop-opacity="0"/></radialGradient>
<pattern id="dots" width="28" height="28" patternUnits="userSpaceOnUse"><circle cx="2" cy="2" r="2" fill="#ffffff" fill-opacity="0.07"/></pattern>
<filter id="sh" x="-20%" y="-20%" width="140%" height="140%"><feDropShadow dx="0" dy="18" stdDeviation="22" flood-color="#000" flood-opacity="0.28"/></filter>
</defs>
<rect width="1200" height="675" fill="url(#bg)"/>
<rect width="1200" height="675" fill="url(#dots)"/>
<circle cx="600" cy="350" r="420" fill="url(#glow)"/>
<circle cx="1090" cy="80" r="150" fill="#9edd05" fill-opacity="0.10"/>
<circle cx="110" cy="610" r="120" fill="#9edd05" fill-opacity="0.08"/>

<g filter="url(#sh)">
<path d="M600 130 L840 320 L800 320 L800 560 L400 560 L400 320 L360 320 Z" fill="#ffffff" stroke="#ffffff" stroke-width="24" stroke-linejoin="round"/>
</g>
<path d="M600 130 L860 335" stroke="#9edd05" stroke-width="30" stroke-linecap="round"/>
<path d="M600 130 L340 335" stroke="#9edd05" stroke-width="30" stroke-linecap="round"/>
<rect x="745" y="170" width="44" height="90" rx="8" fill="#ffffff"/>
<rect x="450" y="355" width="90" height="80" rx="12" fill="#edf1ee"/>
<line x1="495" y1="355" x2="495" y2="435" stroke="#ffffff" stroke-width="6"/><line x1="450" y1="395" x2="540" y2="395" stroke="#ffffff" stroke-width="6"/>
<rect x="640" y="410" width="100" height="150" rx="14" fill="#0c3a30"/>
<circle cx="720" cy="490" r="8" fill="#9edd05"/>
<g transform="rotate(-28 300 520)" filter="url(#sh)">
<circle cx="260" cy="520" r="52" fill="#9edd05"/><circle cx="260" cy="520" r="20" fill="#0c3a30"/>
<rect x="306" y="508" width="150" height="24" rx="6" fill="#9edd05"/>
<rect x="410" y="532" width="18" height="30" rx="4" fill="#9edd05"/><rect x="380" y="532" width="18" height="22" rx="4" fill="#9edd05"/>
</g>

</svg>
